<?xml version="1.0" standalone="no"?><!DOCTYPE svg PUBLIC "-//W3C//DTD SVG 1.1//EN" "http://www.w3.org/Graphics/SVG/1.1/DTD/svg11.dtd"><svg t="1626673309634" class="icon" viewBox="0 0 1024 1024" version="1.1" xmlns="http://www.w3.org/2000/svg" p-id="30621" xmlns:xlink="http://www.w3.org/1999/xlink" width="200" height="200"><defs><style type="text/css"></style></defs><path d="M716.672 383.14496c18.3808-18.37568 36.76672-134.784-36.7616-208.29696-6.1184-6.12352-24.4992-18.37568-30.62784-24.50432C539.01312 89.08288 551.2704 15.56992 551.2704 15.56992c-355.328 177.65376-226.67776 361.4464-220.544 367.57504H99.88608c-56.16128 0-61.26592-0.22528-61.26592 61.25568v490.09664c0 64.91136-6.45632 61.2608 61.26592 61.2608h823.11168c60.16 0 61.26592-3.24608 61.26592-61.2608V444.39552c0-50.91328-7.66464-61.25568-47.85152-61.25568l-219.74016 0.00512z" fill="#FF7474" p-id="30622"></path><path d="M525.39904 59.78112s8.3456 61.9264 97.78688 116.96128l20.62848 20.64384c55.05024 68.79744 27.53024 171.99616 13.76768 185.75872h-55.03488v-13.76256c0-55.04-27.53024-103.19872-34.4064-82.56512-6.87616 20.64384-20.6336 41.28256-20.6336 41.28256-48.15872 48.15872-41.28256-116.96128-41.28256-116.96128-103.19872 68.80768-89.43616 151.36256-82.55488 172.0064h-41.28256c-13.75744-13.76256-111.5392-144.4864 143.01184-323.36384zM89.25184 435.46624h462.33088v135.0912H89.25184zM89.25184 626.26816h168.6272v134.77888H89.25184zM89.24672 806.15936h400.26624v138.75712H89.24672zM306.26304 761.05216v-133.18144h424.83712v133.18144zM543.08352 806.15936h392.39168v140.48256h-392.39168zM776.3968 629.46304h154.56256v131.57888H776.3968zM605.63968 437.6832h326.21568v131.60448h-326.21568z" fill="#FFFFFF" p-id="30623"></path></svg>