<?xml version="1.0" standalone="no"?><!DOCTYPE svg PUBLIC "-//W3C//DTD SVG 1.1//EN" "http://www.w3.org/Graphics/SVG/1.1/DTD/svg11.dtd"><svg t="1626749881011" class="icon" viewBox="0 0 1024 1024" version="1.1" xmlns="http://www.w3.org/2000/svg" p-id="2234" xmlns:xlink="http://www.w3.org/1999/xlink" width="200" height="200"><defs><style type="text/css"></style></defs><path d="M704.147503 16.65806 704.147503 16.65806 704.147503 16.65806zM704.147503 16.65806 319.908591 16.65806c-17.106817 0-31.620023 7.120956-43.544717 21.221102-11.97569 14.184797-17.880922 31.710794-17.880922 52.542293l0 846.563564c0 20.836599 5.906253 38.356476 17.880922 52.542293 11.924695 14.100146 26.437901 21.221102 43.544717 21.221102l384.238912 0c3.75222 0 7.448345-0.333508 11.14447-1.102514 3.75222-0.745548 7.341255-1.854182 10.709991-3.340179 3.311622-1.520674 6.402945-3.424831 9.489169-5.606401 2.984233-2.232566 5.742048-4.690529 8.279565-7.28516 2.593611-2.593611 5.024037-5.379983 7.234165-8.358097 2.260103-2.955676 4.357021-6.289736 6.233641-10.020537 1.76851-3.724682 3.311622-7.641106 4.414136-11.670739 1.107614-4.136723 2.096919-8.358097 2.871024-12.885442 0.660897-4.441673 0.994404-8.969018 0.994404-13.410692L765.518068 90.477549c0-13.410692-2.757815-25.911631-8.279565-37.418166-5.628839-11.535092-13.077184-20.475553-22.408268-26.793846-9.26887-6.374388-19.537243-9.551383-30.681713-9.551383L704.148523 16.65806zM511.974502 961.546299c-5.137247 0-10.156184-1.158609-15.016018-3.424831-4.797619-2.175451-9.16076-5.544187-12.80079-9.985861-3.75222-4.470231-6.567149-9.438173-8.443769-15.123107-1.825625-5.628839-2.70682-11.726834-2.70682-18.434729 0-8.194913 1.548211-16.005323 4.967943-23.42511 3.368736-7.454464 8.059266-13.21895 13.964499-17.333235 6.013342-4.052071 12.749795-6.126552 20.142045-6.126552 11.206684 0 20.531648 4.690529 27.930017 13.964499 7.39225 9.302526 11.201584 20.311349 11.201584 32.976492 0 3.724682-0.220299 7.064861-0.553807 10.014418-0.384503 3.011771-1.214703 5.798143-2.260103 8.364217-1.102514 2.593611-2.430427 5.188242-3.972518 7.866504-1.435002 2.593611-2.984233 4.990381-4.414136 7.256603-1.548211 2.204008-3.368736 4.029633-5.52175 5.544187l-6.843543 4.441673c-2.210128 1.520674-4.634435 2.457964-7.171951 2.81493-2.593611 0.362065-5.41364 0.553807-8.392774 0.609901L511.974502 961.546299zM719.706109 818.575412 304.344886 818.575412 304.344886 208.723971l415.361223 0L719.706109 818.575412 719.706109 818.575412zM719.706109 818.575412" p-id="2235"></path></svg>