<?xml version="1.0" standalone="no"?><!DOCTYPE svg PUBLIC "-//W3C//DTD SVG 1.1//EN" "http://www.w3.org/Graphics/SVG/1.1/DTD/svg11.dtd"><svg t="1626666942986" class="icon" viewBox="0 0 1024 1024" version="1.1" xmlns="http://www.w3.org/2000/svg" p-id="12641" xmlns:xlink="http://www.w3.org/1999/xlink" width="200" height="200"><defs><style type="text/css"></style></defs><path d="M153.6 0h716.8a51.2 51.2 0 0 1 51.2 51.2v256H102.4V51.2a51.2 51.2 0 0 1 51.2-51.2z" fill="#2b2111" p-id="12642"></path><path d="M102.4 358.4h819.2v307.2H102.4z" fill="#2b2111" p-id="12643"></path><path d="M102.4 716.8h819.2v256a51.2 51.2 0 0 1-51.2 51.2H153.6a51.2 51.2 0 0 1-51.2-51.2V716.8z" fill="#2b2111" p-id="12644"></path><path d="M204.8 102.4m51.2 0l184.32 0q51.2 0 51.2 51.2l0 0q0 51.2-51.2 51.2l-184.32 0q-51.2 0-51.2-51.2l0 0q0-51.2 51.2-51.2Z" fill="#d81e06" p-id="12645"></path><path d="M204.8 460.8m51.2 0l184.32 0q51.2 0 51.2 51.2l0 0q0 51.2-51.2 51.2l-184.32 0q-51.2 0-51.2-51.2l0 0q0-51.2 51.2-51.2Z" fill="#1afa29" p-id="12646"></path><path d="M768 870.4m-61.44 0a61.44 61.44 0 1 0 122.88 0 61.44 61.44 0 1 0-122.88 0Z" fill="#1afa29" p-id="12647"></path></svg>