<?xml version="1.0" standalone="no"?><!DOCTYPE svg PUBLIC "-//W3C//DTD SVG 1.1//EN" "http://www.w3.org/Graphics/SVG/1.1/DTD/svg11.dtd"><svg t="1626673213208" class="icon" viewBox="0 0 2522 1024" version="1.1" xmlns="http://www.w3.org/2000/svg" p-id="23483" xmlns:xlink="http://www.w3.org/1999/xlink" width="492.578125" height="200"><defs><style type="text/css"></style></defs><path d="M0 441.39535h1629.074659v220.037972H0z" fill="#46C178" p-id="23484"></path><path d="M1629.074659 441.669029H0l309.804706-149.77087h1009.465247l309.804706 149.77087z" fill="#6CD398" p-id="23485"></path><path d="M1629.074659 618.534128h-332.10955l-184.391273-176.865099h516.500823V618.534128z" fill="#3D9B63" p-id="23486"></path><path d="M102.90333 580.013799m4.242026 0l27.025808 0q4.242026 0 4.242025 4.242025l0 7.594594q0 4.242026-4.242025 4.242026l-27.025808 0q-4.242026 0-4.242026-4.242026l0-7.594594q0-4.242026 4.242026-4.242025Z" fill="#FF4A1A" p-id="23487"></path><path d="M277.373737 534.925172m4.242025 0l27.025808 0q4.242026 0 4.242026 4.242026l0 7.594594q0 4.242026-4.242026 4.242025l-27.025808 0q-4.242026 0-4.242025-4.242025l0-7.594594q0-4.242026 4.242025-4.242026Z" fill="#214229" p-id="23488"></path><path d="M345.382985 534.925172m4.242026 0l27.025808 0q4.242026 0 4.242026 4.242026l0 7.594594q0 4.242026-4.242026 4.242025l-27.025808 0q-4.242026 0-4.242026-4.242025l0-7.594594q0-4.242026 4.242026-4.242026Z" fill="#214229" p-id="23489"></path><path d="M277.373737 580.013799m4.242025 0l27.025808 0q4.242026 0 4.242026 4.242025l0 7.594594q0 4.242026-4.242026 4.242026l-27.025808 0q-4.242026 0-4.242025-4.242026l0-7.594594q0-4.242026 4.242025-4.242025Z" fill="#214229" p-id="23490"></path><path d="M345.382985 580.013799m4.242026 0l27.025808 0q4.242026 0 4.242026 4.242025l0 7.594594q0 4.242026-4.242026 4.242026l-27.025808 0q-4.242026 0-4.242026-4.242026l0-7.594594q0-4.242026 4.242026-4.242025Z" fill="#214229" p-id="23491"></path><path d="M412.708036 534.925172m4.242026 0l27.025808 0q4.242026 0 4.242026 4.242026l0 7.594594q0 4.242026-4.242026 4.242025l-27.025808 0q-4.242026 0-4.242026-4.242025l0-7.594594q0-4.242026 4.242026-4.242026Z" fill="#214229" p-id="23492"></path><path d="M480.648865 534.925172m4.242026 0l27.025808 0q4.242026 0 4.242026 4.242026l0 7.594594q0 4.242026-4.242026 4.242025l-27.025808 0q-4.242026 0-4.242026-4.242025l0-7.594594q0-4.242026 4.242026-4.242026Z" fill="#214229" p-id="23493"></path><path d="M412.708036 580.013799m4.242026 0l27.025808 0q4.242026 0 4.242026 4.242025l0 7.594594q0 4.242026-4.242026 4.242026l-27.025808 0q-4.242026 0-4.242026-4.242026l0-7.594594q0-4.242026 4.242026-4.242025Z" fill="#214229" p-id="23494"></path><path d="M480.648865 580.013799m4.242026 0l27.025808 0q4.242026 0 4.242026 4.242025l0 7.594594q0 4.242026-4.242026 4.242026l-27.025808 0q-4.242026 0-4.242026-4.242026l0-7.594594q0-4.242026 4.242026-4.242025Z" fill="#214229" p-id="23495"></path><path d="M627.204007 534.925172m4.242025 0l27.025808 0q4.242026 0 4.242026 4.242026l0 7.594594q0 4.242026-4.242026 4.242025l-27.025808 0q-4.242026 0-4.242025-4.242025l0-7.594594q0-4.242026 4.242025-4.242026Z" fill="#FFE631" p-id="23496"></path><path d="M708.418271 534.925172m4.242025 0l27.025808 0q4.242026 0 4.242026 4.242026l0 7.594594q0 4.242026-4.242026 4.242025l-27.025808 0q-4.242026 0-4.242025-4.242025l0-7.594594q0-4.242026 4.242025-4.242026Z" fill="#FFE631" p-id="23497"></path><path d="M627.204007 580.013799m4.242025 0l27.025808 0q4.242026 0 4.242026 4.242025l0 7.594594q0 4.242026-4.242026 4.242026l-27.025808 0q-4.242026 0-4.242025-4.242026l0-7.594594q0-4.242026 4.242025-4.242025Z" fill="#FFE631" p-id="23498"></path><path d="M708.418271 580.013799m4.242025 0l27.025808 0q4.242026 0 4.242026 4.242025l0 7.594594q0 4.242026-4.242026 4.242026l-27.025808 0q-4.242026 0-4.242025-4.242026l0-7.594594q0-4.242026 4.242025-4.242025Z" fill="#FFE631" p-id="23499"></path><path d="M788.743077 580.013799m4.242026 0l27.025808 0q4.242026 0 4.242026 4.242025l0 7.594594q0 4.242026-4.242026 4.242026l-27.025808 0q-4.242026 0-4.242026-4.242026l0-7.594594q0-4.242026 4.242026-4.242025Z" fill="#214229" p-id="23500"></path><path d="M869.888921 580.013799m4.242026 0l27.025808 0q4.242026 0 4.242026 4.242025l0 7.594594q0 4.242026-4.242026 4.242026l-27.025808 0q-4.242026 0-4.242026-4.242026l0-7.594594q0-4.242026 4.242026-4.242025Z" fill="#214229" p-id="23501"></path><path d="M950.692667 580.013799m4.242025 0l27.025808 0q4.242026 0 4.242026 4.242025l0 7.594594q0 4.242026-4.242026 4.242026l-27.025808 0q-4.242026 0-4.242025-4.242026l0-7.594594q0-4.242026 4.242025-4.242025Z" fill="#214229" p-id="23502"></path><path d="M1031.633251 580.013799m4.242026 0l27.025808 0q4.242026 0 4.242026 4.242025l0 7.594594q0 4.242026-4.242026 4.242026l-27.025808 0q-4.242026 0-4.242026-4.242026l0-7.594594q0-4.242026 4.242026-4.242025Z" fill="#214229" p-id="23503"></path><path d="M1345.953662 563.935153m4.242026 0l211.485501 0q4.242026 0 4.242025 4.242026l0 21.415387q0 4.242026-4.242025 4.242026l-211.485501 0q-4.242026 0-4.242026-4.242026l0-21.415387q0-4.242026 4.242026-4.242026Z" fill="#49EA8E" p-id="23504"></path><path d="M1542.044715 466.231726m0.821038 0l57.883123 0q0.821037 0 0.821037 0.821037l0 7.936693q0 0.821037-0.821037 0.821037l-57.883123 0q-0.821037 0-0.821038-0.821037l0-7.936693q0-0.821037 0.821038-0.821037Z" fill="#214229" p-id="23505"></path><path d="M1509.819005 485.59452m0.821037 0l90.108834 0q0.821037 0 0.821037 0.821037l0 7.936693q0 0.821037-0.821037 0.821037l-90.108834 0q-0.821037 0-0.821037-0.821037l0-7.936693q0-0.821037 0.821037-0.821037Z" fill="#214229" p-id="23506"></path><path d="M1476.430159 504.957314m0.821037 0l123.49768 0q0.821037 0 0.821037 0.821037l0 7.936693q0 0.821037-0.821037 0.821037l-123.49768 0q-0.821037 0-0.821037-0.821037l0-7.936693q0-0.821037 0.821037-0.821037Z" fill="#214229" p-id="23507"></path><path d="M1156.841425 74.733817a16.489164 16.489164 0 0 1 16.489164 16.489164v200.675178h-33.046747V91.222981a16.489164 16.489164 0 0 1 16.557583-16.489164zM1206.103658 111.406812a9.920866 9.920866 0 0 0-0.889457 10.262965 10.057706 10.057706 0 0 0 17.72072 1.026297 81.145844 81.145844 0 0 0 0-90.382513 10.194545 10.194545 0 0 0-9.099829-4.926223 10.331385 10.331385 0 0 0-8.552471 5.747261 10.057706 10.057706 0 0 0 0.821037 10.262965 61.030432 61.030432 0 0 1 0 67.735569zM1087.8743 122.696074a10.194545 10.194545 0 0 0 17.58388-1.231556 10.331385 10.331385 0 0 0-0.684197-10.126125 61.030432 61.030432 0 0 1 0-67.73557 10.194545 10.194545 0 0 0-3.215729-14.094472 10.126126 10.126126 0 0 0-14.094473 2.80521 81.487943 81.487943 0 0 0 0 90.382513z m-25.110055-106.734837a10.331385 10.331385 0 0 0 0.684198-10.126126 10.468224 10.468224 0 0 0-8.620891-5.81568 10.194545 10.194545 0 0 0-9.099829 4.515705 133.760645 133.760645 0 0 0 0 148.539315 9.989286 9.989286 0 0 0 6.431459 4.378865 10.262965 10.262965 0 0 0 11.973459-8.073533 10.605064 10.605064 0 0 0-1.505235-7.594594 113.439974 113.439974 0 0 1 0-125.960792z m217.7117 11.83662a133.760645 133.760645 0 0 0-12.315558-23.125882A10.262965 10.262965 0 0 0 1258.923718 0.019431a10.126126 10.126126 0 0 0-7.731433 15.941806 113.439974 113.439974 0 0 1 0 125.960792 10.194545 10.194545 0 0 0 2.94205 13.683953 10.262965 10.262965 0 0 0 13.683953-2.531531 132.871188 132.871188 0 0 0 22.441684-74.303868 131.981731 131.981731 0 0 0-9.920867-50.972726z" fill="#46C178" p-id="23508"></path></svg>